<?xml version="1.0" encoding="utf-8"?>
<!-- Generator: Adobe Illustrator 27.5.0, SVG Export Plug-In . SVG Version: 6.00 Build 0)  -->
<svg version="1.1" xmlns="http://www.w3.org/2000/svg" xmlns:xlink="http://www.w3.org/1999/xlink" x="0px" y="0px"
	 viewBox="0 0 3710 3710" style="enable-background:new 0 0 3710 3710;" xml:space="preserve">
<g id="Background">
	<g>
		<g>
			<rect style="fill:#FFFFFF;" width="3710" height="3710"/>
		</g>
	</g>
</g>
<g id="Illustration">
	<g>
		<path style="fill:#F4F7FA;" d="M2557.998,892.6c-104.314-89.593-646.472-555.233-1236.889-358.75
			C652.071,756.498,550.414,1619.913,544.18,1680.748c-44.875,437.961,102.826,1006.992,516.88,1258.591
			c47.839,29.069,149.26,84.301,474.376,134.526c660.468,102.033,1201.642,185.638,1484.971-80.371
			C3448.698,2591.383,3216.033,1457.764,2557.998,892.6z"/>
		<g>
			<linearGradient id="SVGID_1_" gradientUnits="userSpaceOnUse" x1="1447.8342" y1="1739.4775" x2="3016.5793" y2="1739.4775">
				<stop  offset="0" style="stop-color:#444B8C"/>
				<stop  offset="0.9964" style="stop-color:#26264F"/>
			</linearGradient>
			<path style="fill:url(#SVGID_1_);" d="M2931.47,750.581l-1442.386-46.206l-5.495-10.048l-12.68-0.377
				c-5.917-0.176-11.919,2.051-16.164,6.173c-4.247,4.122-6.911,9.788-6.911,15.706v2069.186l1483.359-83.228
				c47.103-2.644,85.386-44.654,85.386-93.843V828.996C3016.579,779.807,2978.573,751.983,2931.47,750.581z"/>
			<g>
				
					<linearGradient id="SVGID_00000045603737613899697340000018389151061902376841_" gradientUnits="userSpaceOnUse" x1="2980.1526" y1="762.6904" x2="1467.5906" y2="2648.679">
					<stop  offset="0" style="stop-color:#AA80F9"/>
					<stop  offset="0.9964" style="stop-color:#6165D7"/>
				</linearGradient>
				<path style="fill:url(#SVGID_00000045603737613899697340000018389151061902376841_);" d="M2947.528,737.398L1486.757,693.95
					c-5.915-0.176-11.602,2.051-15.849,6.173c-4.247,4.122-6.595,9.788-6.595,15.706v2069.186l1483.359-83.228
					c47.103-2.644,85.386-44.654,85.386-93.843V828.996C3033.058,779.807,2994.631,738.8,2947.528,737.398z"/>
				
					<linearGradient id="SVGID_00000134233662966972764090000000985489112967048383_" gradientUnits="userSpaceOnUse" x1="2886.6865" y1="817.4402" x2="3435.5303" y2="-1048.634">
					<stop  offset="0.0036" style="stop-color:#E38DDD"/>
					<stop  offset="1" style="stop-color:#9571F6"/>
				</linearGradient>
				<polygon style="fill:url(#SVGID_00000134233662966972764090000000985489112967048383_);" points="2898.552,2315.837 
					2461.904,2319.71 2461.904,722.964 2898.552,735.953 				"/>
			</g>
		</g>
		
			<linearGradient id="SVGID_00000059301030206430092790000014937476214752781965_" gradientUnits="userSpaceOnUse" x1="1065.543" y1="1851.7194" x2="2594.7354" y2="1851.7194">
			<stop  offset="0" style="stop-color:#AA80F9"/>
			<stop  offset="0.9964" style="stop-color:#6165D7"/>
		</linearGradient>
		<path style="opacity:0.2;fill:url(#SVGID_00000059301030206430092790000014937476214752781965_);" d="M2557.998,892.6
			l-1110.164-29.013l0.814,1109.306h311.318v866.958l799.173-49.799c19.744-1.229,35.601-17.6,35.601-37.384V930.043
			C2594.74,909.738,2578.297,893.131,2557.998,892.6z"/>
		<g>
			<g>
				<g>
					<defs>
						<path id="SVGID_00000152232803506163099830000005825427656182103687_" d="M2105.972,2726.133
							c-36.262-61.87-82.116-162.629-63.738-275.519c32.062-196.946,223.53-209.145,321.043-444.374
							c78.648-189.722-4.419-281.863,106.392-430.407c18.548-24.864,115.25-159.63,231.124-145.252
							c65.296,8.101,107.695,59.891,115.654,69.614c120.295,146.941,49.941,476.236-127.286,682.487
							c-101.824,118.499-151.928,111.758-346.88,279.192C2227.724,2560.261,2151.486,2659.61,2105.972,2726.133z"/>
					</defs>
					
						<linearGradient id="SVGID_00000042707261302018578430000004892586777332268208_" gradientUnits="userSpaceOnUse" x1="2371.2156" y1="2074.1538" x2="3090.7378" y2="1538.3405">
						<stop  offset="0" style="stop-color:#AA80F9"/>
						<stop  offset="0.9964" style="stop-color:#6165D7"/>
					</linearGradient>
					
						<use xlink:href="#SVGID_00000152232803506163099830000005825427656182103687_"  style="overflow:visible;fill:url(#SVGID_00000042707261302018578430000004892586777332268208_);"/>
					<clipPath id="SVGID_00000111903671597344097750000002659844003015763122_">
						<use xlink:href="#SVGID_00000152232803506163099830000005825427656182103687_"  style="overflow:visible;"/>
					</clipPath>
					<g style="opacity:0.7;clip-path:url(#SVGID_00000111903671597344097750000002659844003015763122_);">
						<g>
							<path style="fill:#FFFFFF;" d="M2114.209,2813.469c-27.72-170.621-6.034-300.726,64.447-386.705
								c34.514-42.107,68.14-59.568,103.738-78.056c38.207-19.842,77.718-40.36,119.575-94.226
								c40.676-52.341,47.837-90.476,56.9-138.754c8.169-43.495,18.333-97.625,56.474-179.17
								c33.433-71.47,62.879-110.211,88.856-144.391c28.103-36.974,50.299-66.181,67.063-123.274
								c27.386-93.283,20.667-196.854-19.967-307.841l3.17-1.159c40.885,111.678,47.627,215.961,20.032,309.95
								c-16.934,57.691-39.301,87.115-67.613,124.366c-25.876,34.046-55.204,72.634-88.483,143.779
								c-37.962,81.157-48.083,135.055-56.216,178.363c-9.152,48.729-16.378,87.218-57.552,140.202
								c-42.313,54.451-82.154,75.141-120.685,95.151c-35.283,18.323-68.609,35.63-102.687,77.2
								c-69.84,85.198-91.28,214.403-63.727,384.027L2114.209,2813.469z"/>
						</g>
						<g>
							<path style="fill:#FFFFFF;" d="M2592.691,1810.441l-0.111-2.254c-0.118-2.48-13.3-248.61-128.586-308.128l1.545-2.996
								c111.026,57.316,128.662,283.579,130.279,308.709c120.974-42.85,192.644-122.375,231.529-181.719
								c42.372-64.665,55.993-119.872,56.124-120.422l3.281,0.789c-0.134,0.557-13.896,56.333-56.583,121.481
								c-39.396,60.123-112.205,140.816-235.346,183.797L2592.691,1810.441z"/>
						</g>
						<g>
							<path style="fill:#FFFFFF;" d="M2491.494,2026.24c-5.809,0-9.008-0.157-9.152-0.164l-1.447-0.079l-0.141-1.442
								c-12.265-126.284-102.441-278.137-103.352-279.657l2.895-1.732c0.91,1.519,90.782,152.847,103.669,279.596
								c10.153,0.337,72.489,1.234,152.066-20.836c79.911-22.16,194.055-72.693,284.047-187.591l2.659,2.079
								c-90.595,115.664-205.492,166.51-285.927,188.798C2568.429,2024.159,2512.662,2026.24,2491.494,2026.24z"/>
						</g>
						<g>
							<path style="fill:#FFFFFF;" d="M2425.505,2344.192c-67.443,0-107.867-10.667-108.676-10.888l-1.716-0.471l0.56-1.686
								c46.082-139.03-54.759-300.9-55.78-302.519l2.848-1.804c1.028,1.626,101.882,163.524,56.697,303.659
								c18.166,4.376,177.327,38.554,388.024-47.529l1.277,3.124C2594.639,2332.693,2495.515,2344.192,2425.505,2344.192z"/>
						</g>
					</g>
				</g>
			</g>
			<g>
				<defs>
					<path id="SVGID_00000057125006566257097850000014094381451174057908_" d="M1923.289,2608.022
						c45.481-36.354,120.254-89.429,222.323-131.605c181.547-75.018,268.263-40.685,342.537-122.863
						c76.882-85.064,20.32-162.074,112.7-257.4c7.768-8.015,107.087-107.861,203.119-77.492
						c67.181,21.246,96.682,94.813,110.525,129.331c53.723,133.968,37.184,343.137-103.043,453.072
						c-132.948,104.228-309.939,66.861-366.152,54.605c-98.617-21.503-123.608-58.231-223.712-77.141
						C2099.849,2555.531,1992.878,2582.661,1923.289,2608.022z"/>
				</defs>
				
					<linearGradient id="SVGID_00000005266933234367416340000007289248396296822705_" gradientUnits="userSpaceOnUse" x1="1265.329" y1="2818.9729" x2="2299.7046" y2="2818.9729" gradientTransform="matrix(0.9987 -0.0511 0.0511 0.9987 503.9859 -368.7464)">
					<stop  offset="0" style="stop-color:#FF9085"/>
					<stop  offset="1" style="stop-color:#FB6FBB"/>
				</linearGradient>
				
					<use xlink:href="#SVGID_00000057125006566257097850000014094381451174057908_"  style="overflow:visible;fill:url(#SVGID_00000005266933234367416340000007289248396296822705_);"/>
				<clipPath id="SVGID_00000145031656597074122790000010027018096153576853_">
					<use xlink:href="#SVGID_00000057125006566257097850000014094381451174057908_"  style="overflow:visible;"/>
				</clipPath>
				<g style="clip-path:url(#SVGID_00000145031656597074122790000010027018096153576853_);">
					<defs>
						<path id="SVGID_00000173149882031031989280000007421615680800741566_" d="M1886.231,2640.883l-2.279-2.803
							c110.148-89.595,219.89-135.019,326.189-135.019c0.592,0,1.172,0.002,1.767,0.005c46.722,0.222,79.939,8.915,112.066,17.322
							c40.115,10.499,77.999,20.415,139.716,14.668c111.078-10.349,204.123-52.977,261.991-120.037
							c89.63-103.861,102.073-271.046,31.702-425.925l3.289-1.493c70.95,156.156,58.289,324.855-32.255,429.778
							c-58.482,67.771-152.377,110.838-264.388,121.272c-62.338,5.804-100.534-4.186-140.971-14.768
							c-31.907-8.35-64.9-16.985-111.168-17.206C2105.973,2506.283,1996.327,2551.328,1886.231,2640.883z"/>
					</defs>
					<defs>
						<path id="SVGID_00000124856400254010960270000001517737716672521908_" d="M2768.129,2351.094l0.068-2.778
							c2.282-95.148-58.489-164.139-109.871-205.261c-55.802-44.659-112.839-67-113.408-67.22l1.307-3.37
							c0.573,0.224,58.128,22.767,114.361,67.771c51.511,41.223,112.34,110.169,111.271,205.337
							c21.834-9.824,175.968-83.815,179.711-213.888l3.611,0.103c-4.078,141.635-182.679,217.491-184.484,218.239L2768.129,2351.094
							z"/>
					</defs>
					<defs>
						<path id="SVGID_00000110465187435633545870000011022748985789117878_" d="M2723.93,2569.19c-19.178,0-36.6-1.4-52.071-3.552
							c-77.078-10.724-123.453-41.98-123.913-42.295l-1.455-0.996l0.959-1.479c51.556-79.318,38.064-162.668,17.666-218.622
							c-22.169-60.806-57.05-103.354-57.398-103.775l2.781-2.304c0.354,0.427,35.58,43.378,57.974,104.741
							c20.579,56.397,34.225,140.264-17.013,220.408c8.423,5.307,52.406,31.253,121.097,40.773
							c70.394,9.754,181.945,3.758,313.454-80.265l1.944,3.045C2884.285,2551.104,2792.846,2569.19,2723.93,2569.19z"/>
					</defs>
					<use xlink:href="#SVGID_00000173149882031031989280000007421615680800741566_"  style="overflow:visible;fill:#FFFFFF;"/>
					<use xlink:href="#SVGID_00000124856400254010960270000001517737716672521908_"  style="overflow:visible;fill:#FFFFFF;"/>
					<use xlink:href="#SVGID_00000110465187435633545870000011022748985789117878_"  style="overflow:visible;fill:#FFFFFF;"/>
					<clipPath id="SVGID_00000087382896179851964920000010293394044708967054_">
						<use xlink:href="#SVGID_00000173149882031031989280000007421615680800741566_"  style="overflow:visible;"/>
					</clipPath>
					
						<clipPath id="SVGID_00000080167173596888523750000002107233163210014910_" style="clip-path:url(#SVGID_00000087382896179851964920000010293394044708967054_);">
						<use xlink:href="#SVGID_00000124856400254010960270000001517737716672521908_"  style="overflow:visible;"/>
					</clipPath>
					
						<clipPath id="SVGID_00000064351846216509739690000001253715308877996177_" style="clip-path:url(#SVGID_00000080167173596888523750000002107233163210014910_);">
						<use xlink:href="#SVGID_00000110465187435633545870000011022748985789117878_"  style="overflow:visible;"/>
					</clipPath>
				</g>
			</g>
		</g>
		<g>
			<g>
				
					<linearGradient id="SVGID_00000047058897014364352830000001417622247030527880_" gradientUnits="userSpaceOnUse" x1="1999.7975" y1="1935.2411" x2="1345.338" y2="1931.4133">
					<stop  offset="0.0219" style="stop-color:#FFC444"/>
					<stop  offset="0.9964" style="stop-color:#F36F56"/>
				</linearGradient>
				<path style="fill:url(#SVGID_00000047058897014364352830000001417622247030527880_);" d="M2439.941,984.827L1008.95,922.953
					l-2.779-6.14l-19.386-0.507c-10.099-0.264-20.608,3.563-27.846,10.614c-7.238,7.05-12.049,16.726-12.049,26.829v1951.119
					c0,10.338,4.879,20.217,12.414,27.296c7.536,7.081,17.965,10.731,28.283,10.088l15.528-0.968l8.625-25.4l1426.924-91.765
					c19.744-1.229,37.422,10.02,37.422-9.763V991.731C2476.087,971.425,2460.24,985.358,2439.941,984.827z"/>
			</g>
			<g>
				
					<linearGradient id="SVGID_00000037691021492658012570000013718726336653715609_" gradientUnits="userSpaceOnUse" x1="1196.0098" y1="1110.0531" x2="3625.0364" y2="4865.8633">
					<stop  offset="0.0219" style="stop-color:#FFC444"/>
					<stop  offset="0.9964" style="stop-color:#F36F56"/>
				</linearGradient>
				<path style="fill:url(#SVGID_00000037691021492658012570000013718726336653715609_);" d="M2465.711,954.287l-1452.217-37.981
					c-10.099-0.264-20.779,3.563-28.017,10.614c-7.238,7.05-12.221,16.726-12.221,26.829v1951.119
					c0,10.338,5.108,20.217,12.642,27.296c7.536,7.081,18.079,10.731,28.398,10.088l1452.557-90.512
					c19.744-1.229,35.6-17.601,35.6-37.384V991.731C2502.453,971.425,2486.01,954.818,2465.711,954.287z"/>
				<g>
					
						<linearGradient id="SVGID_00000142864131987397095860000011594065391450267280_" gradientUnits="userSpaceOnUse" x1="1492.8008" y1="1064.5458" x2="1220.0729" y2="1571.5714">
						<stop  offset="0" style="stop-color:#AA80F9"/>
						<stop  offset="0.9964" style="stop-color:#6165D7"/>
					</linearGradient>
					<polygon style="fill:url(#SVGID_00000142864131987397095860000011594065391450267280_);" points="1833.868,1354.441 
						973.256,1348.174 973.256,1106.457 1833.868,1121.794 					"/>
				</g>
				
					<linearGradient id="SVGID_00000127722764950084761500000006630552092462011314_" gradientUnits="userSpaceOnUse" x1="1349.1721" y1="1661.0935" x2="3500.0808" y2="2866.6763">
					<stop  offset="0" style="stop-color:#AA80F9"/>
					<stop  offset="0.9964" style="stop-color:#6165D7"/>
				</linearGradient>
				<polygon style="fill:url(#SVGID_00000127722764950084761500000006630552092462011314_);" points="2281.074,2013.293 
					1264.589,2036.682 1264.589,1772.717 2281.074,1760.428 				"/>
				
					<linearGradient id="SVGID_00000128479373120201413700000017112909574661388177_" gradientUnits="userSpaceOnUse" x1="1195.2208" y1="1935.7615" x2="3346.1323" y2="3141.3459">
					<stop  offset="0" style="stop-color:#AA80F9"/>
					<stop  offset="0.9964" style="stop-color:#6165D7"/>
				</linearGradient>
				<polygon style="fill:url(#SVGID_00000128479373120201413700000017112909574661388177_);" points="2281.074,2357.92 
					1264.589,2397.491 1264.589,2150.004 2281.074,2121.533 				"/>
			</g>
		</g>
		
			<linearGradient id="SVGID_00000163784171509231488610000018268489923294433179_" gradientUnits="userSpaceOnUse" x1="1753.0579" y1="2849.7412" x2="2631.6458" y2="2849.7412">
			<stop  offset="0.0036" style="stop-color:#E38DDD"/>
			<stop  offset="1" style="stop-color:#9571F6"/>
		</linearGradient>
		<polygon style="opacity:0.3;fill:url(#SVGID_00000163784171509231488610000018268489923294433179_);" points="1818.308,2599.975 
			1753.058,2894.569 1901.016,3099.507 2631.646,3050.372 		"/>
		<g>
			<g>
				
					<linearGradient id="SVGID_00000142170480076002767430000012731026585178284166_" gradientUnits="userSpaceOnUse" x1="2421.9832" y1="2680.634" x2="1440.3169" y2="4002.8779">
					<stop  offset="0" style="stop-color:#444B8C"/>
					<stop  offset="0.9964" style="stop-color:#26264F"/>
				</linearGradient>
				<path style="fill:url(#SVGID_00000142170480076002767430000012731026585178284166_);" d="M2810.971,3032.616l-888.346,44.758
					l-10.581,22.587l-4.563,0.285c-10.232,0.638-19.239-7.021-20.77-17.662l-68.178-473.971
					c-1.765-12.267,6.839-23.187,18.647-23.665l8.066-0.131l4.98,2.563l894.831-22.538c10.085-0.408,18.18-9.661,19.687,0.816
					l65.349,454.303C2831.833,3032.058,2822.603,3031.89,2810.971,3032.616z"/>
				<g>
					
						<linearGradient id="SVGID_00000078760238274303581180000010210426009496033199_" gradientUnits="userSpaceOnUse" x1="2584.6404" y1="2253.4749" x2="2315.6523" y2="2753.5479" gradientTransform="matrix(1 0 0.1496 0.9906 -470.4149 29.3223)">
						<stop  offset="0" style="stop-color:#444B8C"/>
						<stop  offset="0.9964" style="stop-color:#26264F"/>
					</linearGradient>
					<polygon style="fill:url(#SVGID_00000078760238274303581180000010210426009496033199_);" points="2735.837,2756.017 
						1846.084,2800.14 1823.502,2643.15 2714.101,2604.907 					"/>
					<g>
						
							<linearGradient id="SVGID_00000070815197203096187350000013491970168161144726_" gradientUnits="userSpaceOnUse" x1="2444.8953" y1="2726.0286" x2="2603.6179" y2="2726.0286">
							<stop  offset="0" style="stop-color:#444B8C"/>
							<stop  offset="0.9964" style="stop-color:#26264F"/>
						</linearGradient>
						<polygon style="fill:url(#SVGID_00000070815197203096187350000013491970168161144726_);" points="2603.618,2793.326 
							2465.391,2800.365 2444.895,2657.88 2583.245,2651.692 						"/>
						
							<linearGradient id="SVGID_00000129164319369116544120000004988188779441382561_" gradientUnits="userSpaceOnUse" x1="2603.6179" y1="2860.6646" x2="2760.4551" y2="2860.6646">
							<stop  offset="0" style="stop-color:#444B8C"/>
							<stop  offset="0.9964" style="stop-color:#26264F"/>
						</linearGradient>
						<polygon style="fill:url(#SVGID_00000129164319369116544120000004988188779441382561_);" points="2760.455,2927.162 
							2623.991,2934.959 2603.618,2793.326 2740.203,2786.37 						"/>
					</g>
				</g>
			</g>
			<g>
				
					<linearGradient id="SVGID_00000024687069092977931230000011757974375438536834_" gradientUnits="userSpaceOnUse" x1="2433.8074" y1="2679.2241" x2="1448.0752" y2="4006.9446">
					<stop  offset="0.0036" style="stop-color:#E38DDD"/>
					<stop  offset="1" style="stop-color:#9571F6"/>
				</linearGradient>
				<path style="fill:url(#SVGID_00000024687069092977931230000011757974375438536834_);" d="M2820.895,3043.838l-904.193,56.407
					c-10.232,0.638-19.239-7.021-20.77-17.662l-68.178-473.971c-1.765-12.267,7.023-23.419,18.831-23.897l907.022-36.74
					c10.085-0.408,18.851,7.206,20.358,17.684l65.349,454.303C2841.054,3032.058,2832.526,3043.112,2820.895,3043.838z"/>
				<g>
					
						<linearGradient id="SVGID_00000147918161024467146040000006830583710784664976_" gradientUnits="userSpaceOnUse" x1="2593.8608" y1="2253.4749" x2="2324.8728" y2="2753.5479" gradientTransform="matrix(1 0 0.1496 0.9906 -470.4149 29.3223)">
						<stop  offset="0" style="stop-color:#AA80F9"/>
						<stop  offset="0.9964" style="stop-color:#6165D7"/>
					</linearGradient>
					<polygon style="fill:url(#SVGID_00000147918161024467146040000006830583710784664976_);" points="2745.057,2756.017 
						1855.304,2800.14 1832.722,2643.15 2723.321,2604.907 					"/>
				</g>
			</g>
		</g>
		<g>
			
				<linearGradient id="SVGID_00000086655499402569336290000000493023597643724675_" gradientUnits="userSpaceOnUse" x1="3470.4187" y1="3019.2783" x2="3491.6003" y2="3288.864" gradientTransform="matrix(-1 -0.0024 -0.0024 1 4767.8267 3.3687)">
				<stop  offset="0" style="stop-color:#311944"/>
				<stop  offset="1" style="stop-color:#A03976"/>
			</linearGradient>
			<path style="fill:url(#SVGID_00000086655499402569336290000000493023597643724675_);" d="M1248.529,3148.667
				c0,0,85.171,38.957,86.549,45.146c1.378,6.189-54.828-2.205-77.783-1.369c-22.956,0.838-41.821-5.992-39.721-15.709
				c2.103-9.717,10.196-34.151,10.196-34.151L1248.529,3148.667z"/>
			
				<linearGradient id="SVGID_00000086653177780810590960000017157497639758496933_" gradientUnits="userSpaceOnUse" x1="3525.1008" y1="3169.3657" x2="3521.25" y2="2890.1606" gradientTransform="matrix(-1 -0.0024 -0.0024 1 4767.8267 3.3687)">
				<stop  offset="0" style="stop-color:#D8DEE8"/>
				<stop  offset="1" style="stop-color:#FFFFFF"/>
			</linearGradient>
			<path style="fill:url(#SVGID_00000086653177780810590960000017157497639758496933_);" d="M1251.724,3117.226l-5.279,38.376
				c0,0-13.51,4.772-22.564-0.93l-3.768-42.113L1251.724,3117.226z"/>
			
				<linearGradient id="SVGID_00000082346921080652113560000007073191441009563817_" gradientUnits="userSpaceOnUse" x1="3870.6997" y1="2987.8328" x2="3891.8809" y2="3257.4089" gradientTransform="matrix(-1 -0.0024 -0.0024 1 4767.8267 3.3687)">
				<stop  offset="0" style="stop-color:#311944"/>
				<stop  offset="1" style="stop-color:#A03976"/>
			</linearGradient>
			<path style="fill:url(#SVGID_00000082346921080652113560000007073191441009563817_);" d="M850.182,3117.182l-9.956,15.896
				c-2.784,4.446-3.624,9.804-2.307,14.882c3.437,13.248,10.302,39.066,13.306,45.802c4.09,9.174,59.255,14.75,59.255,14.75
				s4.936-6.911-6.5-15.302c-11.435-8.391-18.796-9.723-22.81-22.075c-4.012-12.349-6.626-47.264-6.626-47.264L850.182,3117.182z"/>
			
				<linearGradient id="SVGID_00000009562399867265535220000007613111188264760751_" gradientUnits="userSpaceOnUse" x1="3891.1106" y1="3164.011" x2="3887.2732" y2="2885.793" gradientTransform="matrix(-1 -0.0024 -0.0024 1 4767.8267 3.3687)">
				<stop  offset="0" style="stop-color:#D8DEE8"/>
				<stop  offset="1" style="stop-color:#FFFFFF"/>
			</linearGradient>
			<path style="fill:url(#SVGID_00000009562399867265535220000007613111188264760751_);" d="M891.56,3076.821
				c-3.63,2.88-21.48,56.626-21.48,56.626s-5.253,6.795-16.625-3.53c-4.433-4.024-4.92-4.868-4.92-4.868l2.171-52.899
				L891.56,3076.821z"/>
			
				<linearGradient id="SVGID_00000108988320852330732230000001640753783995924636_" gradientUnits="userSpaceOnUse" x1="999.9703" y1="1925.6771" x2="1296.2865" y2="2855.4021">
				<stop  offset="0" style="stop-color:#311944"/>
				<stop  offset="1" style="stop-color:#A03976"/>
			</linearGradient>
			<path style="fill:url(#SVGID_00000108988320852330732230000001640753783995924636_);" d="M1300.49,2346.078
				c4.223,114.524,4.108,238.939-2.801,371.835c-7.777,149.651-23.018,287.947-42.107,413.3c-6.985,0.206-14.325,0.225-21.99-0.008
				c-5.177-0.156-10.192-0.421-15.04-0.767c-9.687-26.025-21.129-60.247-31.351-101.114c-10.745-42.973-17.199-81.51-21.774-118.36
				c-16.108-129.743,3.162-141.012-9.933-237.166c-11.596-85.159-28.371-88.524-47.783-209.437
				c-21.06-131.196-5.101-150.832,2.656-157.921C1143.382,2276.262,1220.715,2297.046,1300.49,2346.078z"/>
			
				<linearGradient id="SVGID_00000099662381740647032610000000447832356890432657_" gradientUnits="userSpaceOnUse" x1="3458.4648" y1="2717.0659" x2="3664.9026" y2="2717.0659" gradientTransform="matrix(-1 -0.0024 -0.0024 1 4767.8267 3.3687)">
				<stop  offset="0" style="stop-color:#444B8C"/>
				<stop  offset="0.9964" style="stop-color:#26264F"/>
			</linearGradient>
			<path style="opacity:0.25;fill:url(#SVGID_00000099662381740647032610000000447832356890432657_);" d="M1110.366,2306.441
				c31.49-28.785,103.305-11.14,179.094,33.089c-87.537,94.122-97.203,155.292-86.83,195.023
				c11.721,44.904,47.655,57.915,47.401,106.984c-0.314,60.3-54.775,76.143-53.771,139.957
				c0.663,42.196,24.579,41.815,30.101,93.944c6.534,61.679-24.759,82.852-14.75,128.499c4.306,19.638,16.67,45.314,51.996,71.819
				c-2.597,18.729-5.258,37.269-8.029,55.458c-6.982,0.204-14.323,0.225-21.988-0.01c-5.177-0.155-10.194-0.419-15.038-0.766
				c-9.688-26.025-21.131-60.246-31.353-101.113c-10.745-42.973-17.199-81.51-21.774-118.361
				c-16.107-129.742,3.162-141.012-9.933-237.166c-11.596-85.159-28.371-88.526-47.782-209.438
				C1086.651,2333.164,1102.61,2313.528,1110.366,2306.441z"/>
			
				<linearGradient id="SVGID_00000137121143341234251700000002611312639780362899_" gradientUnits="userSpaceOnUse" x1="648.1271" y1="2438.3616" x2="1015.1252" y2="2696.6196">
				<stop  offset="0" style="stop-color:#311944"/>
				<stop  offset="1" style="stop-color:#A03976"/>
			</linearGradient>
			<path style="fill:url(#SVGID_00000137121143341234251700000002611312639780362899_);" d="M1246.412,2344.024
				c-75.441,109.82-156.858,246.526-229.768,410.216c-55.098,123.701-95.123,239.873-124.553,343.424
				c-3.953,1.818-13.276,5.443-25.175,3.841c-16.229-2.186-25.935-12.572-28.471-15.471c-11.698-74.31-10.238-137.217-6.098-182.612
				c2.651-29.063,7.335-77.463,26.008-137.182c20.915-66.893,35.193-70.621,62.44-141.381
				c28.28-73.445,21.517-91.806,48.651-183.738c11.147-37.767,29.791-93.961,60.492-161.161
				C1102.097,2301.314,1174.255,2322.67,1246.412,2344.024z"/>
			
				<linearGradient id="SVGID_00000043426291328172834490000015671704051388233620_" gradientUnits="userSpaceOnUse" x1="551.0049" y1="1854.6163" x2="1614.9755" y2="2463.147">
				<stop  offset="0" style="stop-color:#AA80F9"/>
				<stop  offset="0.9964" style="stop-color:#6165D7"/>
			</linearGradient>
			<path style="fill:url(#SVGID_00000043426291328172834490000015671704051388233620_);" d="M1552.873,2189.072
				c-0.714,26.722-44.634,50.259-79.998,57.478c-82.685,16.876-178.547-43.203-224.047-109.663
				c-8.934-13.05-18.861-28.872-21.254-27.647c-5.41,2.77,44.298,84.442,65.85,177.331c11.026,47.52,8.14,69.775,28.753,101.412
				c4.67,7.167,10.424,14.628,8.402,23.107c-5.064,21.233-53.624,26.747-87.309,30.572c-35.564,4.038-68.727,3.647-101.512,3.167
				c-52.484-0.766-56.617-3.493-68.597,2.388c-36.505,17.915-34.031,60.842-61.502,66.565
				c-23.069,4.809-46.471-20.953-53.891-29.121c-38.568-42.456-36.507-93.643-43.347-145.272
				c-15.903-120.033-81.115-251.541-144.907-334.791c-19.348-25.248-32.801-38.529-33.642-61.994
				c-2.467-68.881,106.657-144.919,197.512-153.656c24.903-2.394,69.496-1.64,111.301,2.302c16.708,1.573,34.497,3.891,53.616,7.236
				c46.368,8.112,78.647,13.757,111.543,28.808c132.651,60.694,103.702,195.798,247.276,289.21
				C1506.489,2148.623,1553.621,2161.089,1552.873,2189.072z"/>
			
				<linearGradient id="SVGID_00000133493581330025478550000008423579718987349428_" gradientUnits="userSpaceOnUse" x1="1064.6073" y1="1675.6086" x2="1004.1398" y2="1815.1489">
				<stop  offset="0" style="stop-color:#D8DEE8"/>
				<stop  offset="1" style="stop-color:#FFFFFF"/>
			</linearGradient>
			<path style="fill:url(#SVGID_00000133493581330025478550000008423579718987349428_);" d="M1009.36,1717.494
				c0,0-5.697,31.794-18.811,54.428c-11.853,20.455-60.856,27.788-71.066,31.348c-10.209,3.559,15.402,21.34,42.64,27.786
				c27.235,6.448,106.905,10.663,122.508,2.087c15.604-8.574-10.133-11.196-28.875-21.049c-18.743-9.853-25.01-49.906-19.207-66.932
				C1042.353,1728.132,1009.36,1717.494,1009.36,1717.494z"/>
			<g>
				
					<linearGradient id="SVGID_00000088097257354833903220000000948828949964152743_" gradientUnits="userSpaceOnUse" x1="4840.874" y1="2512.8782" x2="4770.043" y2="2332.9797" gradientTransform="matrix(-0.9989 0.0475 0.0475 0.9989 5699.0234 -907.3022)">
					<stop  offset="0" style="stop-color:#444B8C"/>
					<stop  offset="0.9964" style="stop-color:#26264F"/>
				</linearGradient>
				<path style="fill:url(#SVGID_00000088097257354833903220000000948828949964152743_);" d="M1061.141,1708.292
					c19.765-14.125,25.238-52.324,14.261-60.899c-3.138-2.451-6.135-1.325-50.74,16.567c-22.15,8.887-33.046,13.618-36.634,23.4
					c-2.191,5.971-1.837,14.038,0.583,20.395c1.247,3.271,3.675,7.343,9.073,15.115c4.792,6.896,4.469,6.663,5.938,8.667
					c3.529,4.815,10.336,12.921,22.808,22.318c0.694-3.516,1.79-7.879,3.627-12.636c0.706-1.831,3.556-8.986,8.074-15.014
					C1045.906,1715.829,1054.726,1712.877,1061.141,1708.292z"/>
				<path style="fill:#FFFFFF;" d="M1010.487,1744.62c0,0,12.932,19.264,36.885,16.651c21.446-2.342,22.486-50.71,8.3-60.345
					c-4.732-3.215-13.973-4.229-21.345-1.812c-4.355,1.428-5.765,3.327-12.926,5.521c-6.604,2.025-8.524,1.366-10.466,3.153
					c-2.43,2.233-4.049,7.517,0.78,21.434c-4.285-3.976-9.281-5.355-12.698-3.555c-0.545,0.287-1.978,1.357-2.742,2.915
					C993.51,1734.224,998.847,1741.038,1010.487,1744.62z"/>
			</g>
			
				<linearGradient id="SVGID_00000145743082905722004690000009696672091758442377_" gradientUnits="userSpaceOnUse" x1="2433.1455" y1="2148.9363" x2="2767.4802" y2="2148.9363" gradientTransform="matrix(-1 0 0 1 3973.0259 0)">
				<stop  offset="0" style="stop-color:#AA80F9"/>
				<stop  offset="0.9964" style="stop-color:#6165D7"/>
			</linearGradient>
			<path style="opacity:0.3;fill:url(#SVGID_00000145743082905722004690000009696672091758442377_);" d="M1436.888,2184.965
				c-59.95-13.502-83.838-13.067-113.484-36.953c-49.359-39.77-56.772-100.3-85.455-99.56c-13.555,0.35-24.566,14.193-32.403,27.748
				c7.221,11.309,14.442,22.618,21.663,33.926c0.03-0.43,0.125-0.763,0.366-0.886c2.393-1.224,12.32,14.598,21.254,27.647
				c45.5,66.46,141.362,126.539,224.047,109.663c23.708-4.84,51.203-17.032,67.005-32.582
				C1499.072,2200.184,1464.218,2191.121,1436.888,2184.965z"/>
			
				<linearGradient id="SVGID_00000113313110596127612970000010921680240595873456_" gradientUnits="userSpaceOnUse" x1="495.2463" y1="1952.1062" x2="1559.2219" y2="2560.6396">
				<stop  offset="0" style="stop-color:#AA80F9"/>
				<stop  offset="0.9964" style="stop-color:#6165D7"/>
			</linearGradient>
			<path style="fill:url(#SVGID_00000113313110596127612970000010921680240595873456_);" d="M805.971,2415.442
				c-36.319,3.24-118.074,4.719-175.897-48.776c-96.263-89.052-48.508-258.563-15-331.465
				c38.417-83.585,99.562-130.37,136.72-158.803c46.101-35.275,74.24-56.805,108.092-51.984
				c87.552,12.468,148.187,191.908,100.124,243.283c-15.735,16.818-31.316,7.295-76.852,21.796
				c-14.829,4.724-125.508,39.975-144.778,121.492c-13.487,57.054,20.852,123.86,81.968,168.729
				C815.555,2391.624,810.763,2403.533,805.971,2415.442z"/>
			
				<linearGradient id="SVGID_00000021098635957618812670000004793589039214703039_" gradientUnits="userSpaceOnUse" x1="2645.7251" y1="2254.9807" x2="3331.6572" y2="2254.9807" gradientTransform="matrix(-1 0 0 1 3973.0259 0)">
				<stop  offset="0" style="stop-color:#AA80F9"/>
				<stop  offset="0.9964" style="stop-color:#6165D7"/>
			</linearGradient>
			<path style="opacity:0.3;fill:url(#SVGID_00000021098635957618812670000004793589039214703039_);" d="M1213.067,2385.885
				c-41.118-25.985-47.201-52.321-93.245-70.115c-59.815-23.119-88.559,6.248-118.214-17.462
				c-35.292-28.217-4.05-77.375-30.461-162.68c-4.483-14.479-38.53-124.455-116.652-138.466
				c-36.429-6.534-84.544,7.422-103.085,38.293c-14.51,24.159-0.993,42.17-18.634,68.842c-17.63,26.655-38.715,20.135-61.189,42.365
				c-35.685,35.3-41.155,109.737-8.938,151.833c15.027,19.635,34.554,27.399,71.298,42.01c22.443,8.923,43.307,14.474,61.274,17.999
				c-44.991-43.183-68.34-98.873-56.841-147.518c12.011-50.813,59.539-83.645,97.232-102.316
				c37.717,70.982,68.544,153.233,78.809,230.72c6.84,51.629,4.78,102.816,43.347,145.272c7.42,8.168,30.821,33.93,53.891,29.121
				c27.471-5.724,24.997-48.65,61.502-66.565c11.98-5.881,16.113-3.154,68.597-2.388c32.785,0.479,65.948,0.87,101.512-3.167
				c29.956-3.402,71.601-8.169,84.031-24.111C1273.22,2416.08,1237.127,2401.09,1213.067,2385.885z"/>
			<g>
				
					<linearGradient id="SVGID_00000015333288314567519800000017056461367130487433_" gradientUnits="userSpaceOnUse" x1="2297.9304" y1="2305.3567" x2="3149.4163" y2="2305.3567" gradientTransform="matrix(-1 0 0 1 3973.0259 0)">
					<stop  offset="0" style="stop-color:#444B8C"/>
					<stop  offset="0.9964" style="stop-color:#26264F"/>
				</linearGradient>
				<path style="fill:url(#SVGID_00000015333288314567519800000017056461367130487433_);" d="M829.816,2443.987l-4.231-12.446
					c-6.746-19.844,4.345-41.008,24.759-47.227l800.364-243.806l24.388,82.661l-796.321,245.275
					C858.467,2474.699,836.541,2463.769,829.816,2443.987z"/>
				
					<linearGradient id="SVGID_00000124150496759809631660000005492322267407540921_" gradientUnits="userSpaceOnUse" x1="1512.6273" y1="2036.5808" x2="2391.2034" y2="2036.5808" gradientTransform="matrix(-1 0 0 1 3973.0259 0)">
					<stop  offset="0" style="stop-color:#444B8C"/>
					<stop  offset="0.9964" style="stop-color:#26264F"/>
				</linearGradient>
				<path style="fill:url(#SVGID_00000124150496759809631660000005492322267407540921_);" d="M2148.175,2471.75
					c-229.292,74.315-475.014-55.626-546.667-296.496c-73.376-246.661,64.888-508.329,306.391-577.864
					c237.15-68.282,476.948,77.412,538.141,319.169C2505.843,2152.816,2373.505,2398.718,2148.175,2471.75z M2129.671,2404.411
					c190.266-61.132,301.792-268.653,250.719-467.743c-52.071-202.984-253.865-324.269-452.488-266.486
					c-201.669,58.668-317.377,277.306-256.733,483.733C1730.618,2356.274,1936.59,2466.448,2129.671,2404.411z"/>
				<path style="opacity:0.3;fill:#D8DEE8;" d="M1650.708,2140.508l-102.05,31.086c-7.002,32.547-20.616,51.195-34.318,62.552
					c-51.546,42.73-120.377-3.873-216.404,46.231c-48.187,25.143-39.031,41.143-84.198,58.686
					c-74.672,29.003-108.853-11.172-174.938,15.227c-66.843,26.702-73.433,84.406-111.343,82.336
					c-16.217-0.885-37.094-12.683-60.373-57.412l-16.74,5.099c-20.413,6.219-31.505,27.381-24.759,47.227l4.231,12.445
					c6.725,19.781,28.651,30.712,48.959,24.457l796.321-245.275L1650.708,2140.508z"/>
				<path style="opacity:0.56;fill:#FFFFFF;" d="M2148.567,2437.495c-199.719,64.273-412.952-49.546-474.611-258.952
					c-62.943-213.766,56.878-440.242,265.8-500.906c205.655-59.716,414.412,66.003,468.171,276.078
					C2460.62,2159.623,2345.275,2374.192,2148.567,2437.495z"/>
				
					<linearGradient id="SVGID_00000094608939249406830430000006272244095449821877_" gradientUnits="userSpaceOnUse" x1="-7016.5435" y1="3717.6763" x2="-7458.9214" y2="3222.3647" gradientTransform="matrix(0.8705 0.4922 -0.4922 0.8705 10077.4473 2747.6741)">
					<stop  offset="0" style="stop-color:#444B8C"/>
					<stop  offset="0.9964" style="stop-color:#26264F"/>
				</linearGradient>
				<path style="fill:url(#SVGID_00000094608939249406830430000006272244095449821877_);" d="M2163.677,2492.482
					c-229.292,74.316-475.014-55.626-546.667-296.496c-73.375-246.661,64.888-508.328,306.391-577.864
					c237.151-68.281,476.948,77.413,538.142,319.169C2521.345,2173.549,2389.007,2419.451,2163.677,2492.482z M2145.173,2425.144
					c190.266-61.132,301.793-268.652,250.72-467.743c-52.073-202.985-253.865-324.268-452.489-266.486
					c-201.67,58.668-317.376,277.305-256.733,483.733C1746.12,2377.007,1952.092,2487.181,2145.173,2425.144z"/>
				
					<linearGradient id="SVGID_00000005971868238360267110000002626032121978751876_" gradientUnits="userSpaceOnUse" x1="-7666.8423" y1="2994.4929" x2="-7066.8691" y2="3654.968" gradientTransform="matrix(0.8705 0.4922 -0.4922 0.8705 10077.4473 2747.6741)">
					<stop  offset="0" style="stop-color:#444B8C"/>
					<stop  offset="0.9964" style="stop-color:#26264F"/>
				</linearGradient>
				<path style="fill:url(#SVGID_00000005971868238360267110000002626032121978751876_);" d="M2157.147,2468.719
					c-216.508,69.957-448.155-53.038-515.459-280.291c-68.828-232.4,61.44-478.799,288.803-544.504
					c223.501-64.589,449.875,72.426,507.872,300.468C2495.115,2167.534,2370.12,2399.903,2157.147,2468.719z M2145.173,2425.144
					c190.266-61.132,301.793-268.652,250.72-467.743c-52.073-202.985-253.865-324.268-452.489-266.486
					c-201.67,58.668-317.376,277.305-256.733,483.733C1746.12,2377.007,1952.092,2487.181,2145.173,2425.144z"/>
			</g>
			
				<linearGradient id="SVGID_00000010298712166046093160000002675822752819281546_" gradientUnits="userSpaceOnUse" x1="809.0546" y1="2403.0183" x2="890.431" y2="2403.0183">
				<stop  offset="0.0036" style="stop-color:#F36F56"/>
				<stop  offset="1" style="stop-color:#FFC444"/>
			</linearGradient>
			<path style="fill:url(#SVGID_00000010298712166046093160000002675822752819281546_);" d="M809.055,2407.78l8.089-20.103
				c0,0,13.205,0.805,24.04-6.965c5.905-4.234,16.383-5.495,19.428-4.649c3.045,0.844,14.546,0.341,1.436,6.596
				c-13.108,6.253-13.005,10.9-7.541,16.033c5.464,5.132,26.256,16.175,33.739,16.705c7.484,0.532-6.047,12.107-13.594,13.586
				c-7.548,1.476-19.924,3.346-35.236-5.669C833.83,2420.027,809.055,2407.78,809.055,2407.78z"/>
			
				<linearGradient id="SVGID_00000136410459874676057650000013169703373013350792_" gradientUnits="userSpaceOnUse" x1="1534.5273" y1="2239.6987" x2="1620.0138" y2="2239.6987">
				<stop  offset="0.0036" style="stop-color:#F36F56"/>
				<stop  offset="1" style="stop-color:#FFC444"/>
			</linearGradient>
			<path style="fill:url(#SVGID_00000136410459874676057650000013169703373013350792_);" d="M1534.527,2236.512
				c0,0,33.828-3.365,53.985-11.989c20.157-8.626,33.178,3.759,31.326,12.333c-1.852,8.571-35.015,20.506-48.264,20.935
				C1558.327,2258.22,1534.527,2236.512,1534.527,2236.512z"/>
		</g>
	</g>
</g>
</svg>
