<?xml version="1.0" encoding="UTF-8" standalone="no"?>
<!-- Generator: Adobe Illustrator 27.5.0, SVG Export Plug-In . SVG Version: 6.00 Build 0)  -->

<svg
   version="1.1"
   x="0px"
   y="0px"
   viewBox="0 0 750 500"
   style="enable-background:new 0 0 750 500;"
   xml:space="preserve"
   id="svg311"
   sodipodi:docname="5566827_2885864.svg"
   inkscape:version="1.2.2 (732a01da63, 2022-12-09)"
   xmlns:inkscape="http://www.inkscape.org/namespaces/inkscape"
   xmlns:sodipodi="http://sodipodi.sourceforge.net/DTD/sodipodi-0.dtd"
   xmlns="http://www.w3.org/2000/svg"
   xmlns:svg="http://www.w3.org/2000/svg"><defs
   id="defs315" /><sodipodi:namedview
   id="namedview313"
   pagecolor="#ffffff"
   bordercolor="#000000"
   borderopacity="0.25"
   inkscape:showpageshadow="2"
   inkscape:pageopacity="0.0"
   inkscape:pagecheckerboard="0"
   inkscape:deskcolor="#d1d1d1"
   showgrid="false"
   inkscape:zoom="1.6133333"
   inkscape:cx="375"
   inkscape:cy="249.79339"
   inkscape:window-width="1920"
   inkscape:window-height="1009"
   inkscape:window-x="-8"
   inkscape:window-y="-8"
   inkscape:window-maximized="1"
   inkscape:current-layer="svg311" />

<g
   id="OBJECTS">
	<path
   style="fill:#CBF4F4;"
   d="M686.417,405.353c-1.333,4.457-2.822,8.869-4.401,13.247H91.197   c-7.469-11.411-13.449-23.807-17.681-36.785c-5.453-16.696-8.611-34.758-6.965-52.35c1.568-16.853,8.51-33.168,23.045-42.731   c13.482-8.88,29.977-11.399,45.463-14.714c16.17-3.46,31.6-8.286,45.082-18.163c14.277-10.459,24.366-24.512,31.936-40.357   c14.344-30.066,24.557-68.654,58.766-82.338c38.039-15.218,74.611,16.024,107.981,29.495c16.696,6.741,34.097,9.44,51.79,5.285   c16.506-3.886,31.567-12.038,46.986-18.79c15.274-6.696,31.432-12.082,48.319-10.448c15.599,1.501,30.648,8.354,42.473,18.555   c11.87,10.246,20.537,23.851,23.952,39.215c3.539,15.957,2.576,32.978,8.533,48.397c2.799,7.267,7.2,13.684,13.303,18.566   c6.192,4.961,13.426,8.253,20.671,11.343c7.48,3.191,15.095,6.226,21.936,10.694c6.887,4.49,12.9,10.291,17.872,16.808   C697.726,330.473,696.797,370.528,686.417,405.353z"
   id="path2" />
	<g
   id="g48">
		<path
   style="fill:#272742;"
   d="M428.182,173.143c-0.638,0.166-1.249,0.398-1.813,0.731c-0.629,0.37-1.165,0.869-1.609,1.443    l-2.867-3.783c-0.99,0.481-2.053,0.777-3.173,0.888c-0.203,0.019-0.407,0.046-0.62,0.056c-0.379,0.018-0.758,0.018-1.147,0.009    c-5.799-0.203-12.514-4.597-17.037-11.765c-5.494-8.694-6.031-18.277-1.471-23.169c0.046-0.055,0.093-0.102,0.148-0.157    c0.564-0.647,1.23-1.212,1.97-1.683c6.437-4.06,16.639,0.546,22.799,10.294c5.281,8.371,5.855,17.814,1.831,22.883    L428.182,173.143z"
   id="path4" />
		<path
   style="fill:#D2FFFF;"
   d="M424.667,168.13c-6.438,4.06-16.639-0.546-22.799-10.294c-4.144-6.576-5.494-13.578-3.912-18.785    c0.203-0.166,0.425-0.314,0.647-0.453c6.438-4.06,16.649,0.546,22.799,10.294c4.088,6.474,5.355,13.587,3.848,18.831    C425.065,167.871,424.871,168,424.667,168.13z"
   id="path6" />
		<g
   id="g14">
			<path
   style="fill:#FF7733;"
   d="M546.832,199.845c-0.056,24.982-0.527,49.965-1.424,74.928H452.6v-46.848     c-4.282,0.065-8.565,0.093-12.819-0.333c-2.525-0.259-5.124-0.712-7.196-2.174c-3.811-2.701-4.699-7.908-5.069-12.57     c-0.758-9.416-0.703-18.887,0.139-28.293l0.749-11.46c1.156-6.225,2.987-12.366,6.169-17.823     c3.256-5.596,8.028-10.442,13.939-13.041c0.416,0.398,0.823,0.786,1.239,1.175c2.081,1.952,4.412,3.986,7.261,4.227     c1.554,0.13,3.061-0.296,4.486-0.962c2.118,5.651,4.754,11.099,7.88,16.26c10.803-10.757,16.51-26.416,15.178-41.603     l-0.111-0.009c0.083-0.768,0.083-1.554,0.056-2.34c11.404-1.184,22.91,0.166,34.305,1.508c4.097,0.49,8.204,0.971,12.311,1.461     l-0.009,0.102C531.108,122.05,548.256,124.917,546.832,199.845z"
   id="path8" />
			<polygon
   style="fill:#FF5331;"
   points="508.558,210.824 546.832,199.845 545.952,265.293 514.429,227.343    "
   id="polygon10" />
			<path
   style="fill:#ED9E48;"
   d="M494.472,227.131c-0.111-0.157-0.213-0.314-0.305-0.481c-0.009-4.884,0.065-9.786,0.203-14.669     c4.726-0.388,9.462-0.768,14.188-1.156l0.018,0.194c3.459,2.072,5.494,6.012,6.021,9.998c0.518,3.986-0.305,8.038-1.526,11.876     c-0.361,1.147-0.768,2.303-1.554,3.21c-1.776,2.072-4.865,2.257-7.603,2.285c-4.125,0.037-8.491,0.018-12.043-2.09     c-1.369-0.823-2.682-2.479-1.905-3.875c0.333-0.601,0.971-0.953,1.591-1.249c1.785-0.842,3.69-1.415,5.642-1.702     C496.109,228.953,495.156,228.13,494.472,227.131z"
   id="path12" />
		</g>
		<g
   id="g20">
			<path
   style="fill:#FF7733;"
   d="M546.832,199.845c-0.092,0.213-0.194,0.425-0.305,0.638c-1.804,3.487-5.827,5.152-9.619,6.215     c-8.963,2.534-18.323,3.302-27.609,4.06c-0.25,0.018-0.49,0.037-0.74,0.065c-4.726,0.388-9.462,0.768-14.188,1.156     c-7.483,0.62-14.975,1.23-22.457,1.841c-0.564-2.386-0.943-4.8-1.239-7.233c-0.25-1.97-0.435-3.94-0.629-5.91     c-0.398-4.07-0.795-8.13-1.184-12.2c-0.009-0.129-0.018-0.259-0.037-0.388c17.222-3.394,34.574-6.058,52.018-7.982     c-4.504-12.311-7.27-25.241-8.204-38.32c-0.416-5.938-0.129-12.727,4.338-16.667c3.404-3.006,8.343-3.478,12.875-3.172     c0.416,0.028,0.832,0.065,1.258,0.102c2.932,0.305,5.883,1.027,8.093,2.941c3.034,2.618,4.014,6.835,4.745,10.766     c3.57,19.238,5.013,38.893,3.875,58.428C547.71,196.109,547.562,198.079,546.832,199.845z"
   id="path16" />
			<path
   style="fill:#F7B05C;"
   d="M428.349,173.383c0.018-0.102,0.037-0.194,0.056-0.287c0.231-0.055,0.462-0.102,0.703-0.139     c4.393-0.684,8.768,1.397,12.375,4.014c3.607,2.608,6.807,5.818,10.72,7.945c5.032,2.738,10.914,3.468,16.658,3.561     c0.388,4.07,0.786,8.13,1.184,12.2c0.194,1.97,0.379,3.94,0.629,5.91c-7.751-2.026-15.807-2.608-23.706-3.968     c-5.318-0.925-10.979-2.442-14.346-6.659c-2.451-3.089-3.293-7.177-3.339-11.127c-0.555-0.009-1.11-0.102-1.628-0.277     c-1.887-0.61-3.468-2.174-3.977-4.097c-0.472-1.757-0.009-3.7,1.082-5.143c0.444-0.573,0.98-1.073,1.609-1.443     c0.564-0.333,1.175-0.564,1.813-0.731L428.349,173.383z"
   id="path18" />
		</g>
		<rect
   x="452.6"
   y="274.774"
   style="fill:#272742;"
   width="92.807"
   height="95.4"
   id="rect22" />
		<g
   id="g42">
			<path
   style="fill:#272742;"
   d="M473.411,106.335l0.241-0.046c0.546,1.933,0.712,3.977,0.462,5.975     c-1.619-0.536-2.719-2.016-3.709-3.413c-2.562-3.607-5.124-7.205-7.686-10.812c-0.333-0.462-0.703-0.953-1.258-1.091     c-0.509-0.129-1.027,0.083-1.508,0.305c-6.817,3.08-13.069,7.335-19.969,10.22c-2.127,0.888-4.356,1.637-6.622,2.164     c-5.096,1.193-10.405,1.276-15.206-0.666c-1.452-0.592-2.867-1.387-3.894-2.571c-1.036-1.184-1.637-2.821-1.304-4.356     c0.462-2.174,2.608-3.607,4.763-4.171c2.155-0.555,4.421-0.472,6.604-0.897c3.626-0.694,6.854-2.747,9.721-5.078     c2.867-2.331,5.476-4.985,8.445-7.177c2.969-2.201,6.41-3.968,10.1-4.171s7.631,1.434,9.416,4.671     c1.804-1.887,4.153-3.339,6.733-3.7c2.59-0.361,5.402,0.481,7.094,2.47c1.175,1.378,1.739,3.172,2.201,4.93     c0.943,3.616,1.554,7.316,1.841,11.025c-0.055-0.092-0.111-0.176-0.166-0.268c-1.017-1.591-2.812-3.228-4.56-2.516     c-1.313,0.536-1.804,2.127-1.97,3.542C472.967,102.571,473.041,104.486,473.411,106.335z"
   id="path24" />
			<path
   style="fill:#ED9E48;"
   d="M484.556,121.328c1.332,15.187-4.375,30.846-15.178,41.603c-3.126-5.161-5.762-10.609-7.88-16.26     c0.86-0.388,1.683-0.86,2.47-1.35c7.418-4.597,13.735-10.942,18.304-18.378c0.786-1.276,1.526-2.608,1.905-4.06     c0.129-0.518,0.222-1.036,0.268-1.563L484.556,121.328z"
   id="path26" />
			<path
   style="fill:#F7B05C;"
   d="M461.498,146.671c-1.424,0.666-2.932,1.091-4.486,0.962c-2.849-0.24-5.18-2.275-7.261-4.227     c-0.416-0.388-0.823-0.777-1.239-1.175c-4.06-3.875-7.954-7.982-10.692-12.866c-0.472-0.851-0.925-1.868-0.564-2.775     c0.361-0.925,1.415-1.36,2.007-2.164c1.147-1.535,0.213-3.7-0.731-5.365c-1.683-2.978-3.376-5.957-5.059-8.944l-0.111-0.481     c2.266-0.527,4.495-1.276,6.622-2.164c6.9-2.886,13.152-7.14,19.969-10.22c0.481-0.222,0.999-0.435,1.508-0.305     c0.555,0.139,0.925,0.629,1.258,1.091c2.562,3.607,5.124,7.205,7.686,10.812c0.316,0.447,0.644,0.902,0.997,1.332     c0.959,1.171,2.853,0.293,2.615-1.202c-0.142-0.891-0.36-1.775-0.606-2.646l0,0c-0.37-1.85-0.444-3.764-0.231-5.633     c0.225-1.913,1.042-4.147,3.683-3.664c1.226,0.224,2.19,1.133,2.668,2.283c0.115,0.278,0.23,0.43,0.346,0.622     c3.256,5.281,4.208,11.654,4.569,17.86c0.018,0.388,0.046,0.777,0.055,1.175c0.028,0.786,0.028,1.572-0.055,2.34     c-0.046,0.527-0.139,1.045-0.268,1.563c-0.379,1.452-1.119,2.784-1.905,4.06c-4.569,7.436-10.886,13.781-18.304,18.378     C463.181,145.811,462.358,146.283,461.498,146.671z"
   id="path28" />
			<path
   style="fill:#BC722E;"
   d="M452.475,129.359c-0.87,0.215-1.744,0.413-2.623,0.588c-0.439,0.088-0.88,0.17-1.321,0.248     c-0.162,0.028-0.356,0.046-0.534,0.081c-0.001-0.065-0.006-0.131-0.003-0.181c0.096-1.82,0.261-3.636,0.495-5.443     c0.031-0.24-0.066-0.475-0.319-0.543c-0.21-0.057-0.513,0.081-0.543,0.319c-0.137,1.052-0.255,2.106-0.347,3.163     c-0.047,0.53-0.087,1.06-0.122,1.59c-0.031,0.477-0.12,1.003-0.069,1.479c0.057,0.524,0.523,0.585,0.951,0.518     c0.523-0.082,1.044-0.177,1.564-0.276c1.04-0.199,2.074-0.427,3.102-0.682C453.263,130.082,453.032,129.221,452.475,129.359z"
   id="path30" />
			<path
   style="fill:#FFFEFD;"
   d="M462.124,135.959c-0.258,1.559-0.953,3.172-2.361,4.018c-1.301,0.784-2.976,0.775-4.357,0.232     c-1.524-0.588-2.735-1.737-3.733-3.003c-0.053-0.071-0.08-0.152-0.089-0.223c-0.196-0.187-0.241-0.544,0.045-0.74     c2.922-2.023,5.925-3.929,8.999-5.711c0.151-0.08,0.294-0.071,0.401-0.009c0.214-0.036,0.454,0.036,0.552,0.285     C462.24,132.44,462.427,134.231,462.124,135.959z"
   id="path32" />
			<path
   style="fill:#272742;"
   d="M455.076,113.424c-0.668-0.695-1.185-1.728-1.087-2.709c0.009-0.071,0.027-0.134,0.053-0.187     c0.027-0.116,0.071-0.232,0.125-0.347c0.258-0.535,0.829-0.731,1.39-0.641c0.953,0.134,1.898,0.811,2.352,1.648     c0.445,0.829,0.392,1.907-0.356,2.539c-0.365,0.321-0.829,0.454-1.31,0.383C455.789,114.03,455.379,113.753,455.076,113.424z"
   id="path34" />
			<path
   style="fill:#272742;"
   d="M441.177,121.164c-0.668-0.695-1.185-1.729-1.087-2.709c0.009-0.071,0.027-0.134,0.053-0.187     c0.027-0.116,0.071-0.232,0.125-0.347c0.258-0.535,0.829-0.731,1.39-0.641c0.953,0.134,1.898,0.811,2.352,1.648     c0.445,0.829,0.392,1.907-0.356,2.539c-0.365,0.321-0.829,0.454-1.31,0.383C441.89,121.77,441.48,121.493,441.177,121.164z"
   id="path36" />
			<path
   style="fill:#272742;"
   d="M457.518,104.924c-2.478-0.71-5.367,0.104-7.065,2.06c-0.457,0.526-0.571,1.374-0.014,1.89     c0.497,0.461,1.4,0.578,1.891,0.014c0.167-0.193,0.345-0.375,0.538-0.543c0.041-0.036,0.083-0.07,0.124-0.105     c0.082-0.056,0.161-0.115,0.244-0.168c0.215-0.137,0.439-0.26,0.67-0.367c0.034-0.016,0.068-0.03,0.102-0.045     c0.006-0.002,0.007-0.002,0.013-0.004c0.121-0.042,0.241-0.084,0.363-0.121c0.231-0.069,0.465-0.118,0.701-0.162     c0.043-0.004,0.085-0.009,0.128-0.013c0.127-0.011,0.254-0.017,0.382-0.019c0.127-0.002,0.255,0.001,0.382,0.007     c0.056,0.003,0.113,0.007,0.169,0.012c0.007,0.001,0.021,0.002,0.034,0.003c0.035,0.005,0.07,0.01,0.085,0.013     c0.056,0.01,0.111,0.02,0.167,0.032c0.139,0.029,0.276,0.064,0.412,0.103c0.672,0.193,1.482-0.263,1.63-0.957     C458.629,105.832,458.238,105.13,457.518,104.924z"
   id="path38" />
			<path
   style="fill:#272742;"
   d="M435.595,117.916c0.526-2.524,2.592-4.701,5.113-5.292c0.678-0.159,1.482,0.135,1.679,0.869     c0.176,0.654-0.141,1.508-0.869,1.679c-0.249,0.058-0.493,0.131-0.731,0.223c-0.051,0.02-0.1,0.041-0.151,0.061     c-0.087,0.046-0.177,0.089-0.263,0.138c-0.222,0.126-0.434,0.267-0.637,0.422c-0.03,0.023-0.059,0.046-0.088,0.069     c-0.004,0.004-0.005,0.005-0.01,0.01c-0.093,0.087-0.187,0.174-0.276,0.265c-0.168,0.172-0.321,0.356-0.47,0.545     c-0.024,0.036-0.048,0.071-0.071,0.107c-0.068,0.107-0.134,0.217-0.195,0.329c-0.061,0.112-0.118,0.226-0.171,0.341     c-0.024,0.051-0.046,0.103-0.069,0.155c-0.003,0.006-0.008,0.02-0.013,0.031c-0.012,0.033-0.023,0.067-0.028,0.082     c-0.017,0.054-0.034,0.108-0.05,0.162c-0.039,0.136-0.072,0.274-0.101,0.413c-0.143,0.685-0.923,1.189-1.606,0.997     C435.881,119.322,435.442,118.649,435.595,117.916z"
   id="path40" />
		</g>
		<path
   style="fill:#FF7733;"
   d="M444.293,144.583"
   id="path44" />
		<path
   style="fill:#FF5331;"
   d="M531.12,121.95l-0.01,0.1c-0.43-0.04-0.84-0.07-1.26-0.1c-4.53-0.31-9.47,0.16-12.88,3.17    c-4.46,3.94-4.75,10.73-4.33,16.67c0.93,13.08,3.7,26.01,8.2,38.32c-14.88,1.64-29.69,3.82-44.41,6.53l-32.14-42.06    c1.33-0.91,2.74-1.7,4.22-2.35c0.42,0.4,0.83,0.79,1.24,1.18c2.08,1.95,4.41,3.98,7.26,4.22c1.56,0.13,3.06-0.29,4.49-0.96    c2.12,5.65,4.75,11.1,7.88,16.26c10.8-10.76,16.51-26.41,15.18-41.6l-0.11-0.01c0.08-0.77,0.08-1.55,0.05-2.34    c11.41-1.18,22.91,0.17,34.31,1.51C522.9,120.98,527.01,121.46,531.12,121.95z"
   id="path46" />
	</g>
	<g
   id="g64">
		<path
   style="fill:#38B2AC;"
   d="M694.486,417.876l-0.03,0.181H439.167c1.992-6.699,7.559-12.116,13.896-15.329    c7.137-3.606,15.209-4.828,23.13-6.005c-6.593-7.484-11.376-16.552-13.821-26.223c-1.886-7.393-1.735-16.627,4.541-20.942    c4.164-2.867,9.732-2.565,14.65-1.433c8.902,2.037,17.261,6.382,24.02,12.523c-1.856-13.293-1.192-26.917,1.916-39.968    c1.901-7.906,5.794-16.687,13.67-18.724c7.122-1.856,14.349,2.776,19.418,8.117c7.423,7.831,12.629,17.743,14.877,28.305    c7.966-14.153,16.25-28.682,29.014-38.716c6.744-5.296,16.144-9.219,23.749-5.236c5.386,2.821,8.329,9.008,8.872,15.073    c0.528,6.05-0.951,12.085-2.429,17.97c-1.977,7.906-3.953,15.812-5.93,23.703c9.626-6.035,20.444-10.154,31.639-12.055    c4.542-0.77,9.49-1.101,13.504,1.162c5.552,3.138,7.529,10.501,6.292,16.748c-1.222,6.262-4.964,11.678-8.615,16.899    c-3.44,4.919-6.88,9.822-10.32,14.741c10.803-3.138,22.813-1.826,32.665,3.576C683.773,397.658,691.333,407.088,694.486,417.876z"
   id="path50" />
		<path
   style="fill:#BBFFF5;"
   d="M527.218,342.14v75.27c0,0.971,1.509,0.966,1.509-0.008v-75.27    C528.727,341.162,527.218,341.167,527.218,342.14z"
   id="path52" />
		<path
   style="fill:#BBFFF5;"
   d="M600.921,381.503c-4.621,5.803-9.018,11.779-13.199,17.907v-23.107    c0.065-0.125,0.092-0.262,0.085-0.399c3.456-5.574,7.139-11.003,11.047-16.27c0.578-0.778-0.734-1.526-1.307-0.754    c-3.454,4.656-6.723,9.443-9.825,14.34v-35.156c0-0.971-1.509-0.966-1.509,0.008v36.683c-5.357-2.578-11.145-4.171-16.373-7.033    c-0.851-0.466-1.608,0.839-0.754,1.307c5.475,2.997,11.564,4.597,17.127,7.399v22.837c-4.79-2.715-9.51-5.55-14.131-8.544    c-0.816-0.528-1.568,0.78-0.754,1.307c4.865,3.152,9.833,6.14,14.885,8.982v15.383c0,0.971,1.509,0.966,1.509-0.008v-14.367    c0.034-0.035,0.073-0.058,0.103-0.102c4.457-6.634,9.176-13.087,14.155-19.339C602.579,381.827,601.525,380.745,600.921,381.503z"
   id="path54" />
		<path
   style="fill:#BBFFF5;"
   d="M540.882,350.967c-4.868,5.961-9.391,12.195-13.537,18.679c-0.523,0.819,0.784,1.571,1.307,0.754    c4.074-6.37,8.507-12.502,13.29-18.358C542.55,351.297,541.495,350.216,540.882,350.967z"
   id="path56" />
		<path
   style="fill:#BBFFF5;"
   d="M542.341,386.805c-5.288,5.782-10.244,11.86-14.852,18.198c-0.57,0.784,0.74,1.533,1.307,0.754    c4.529-6.229,9.408-12.194,14.605-17.877C544.054,387.165,542.997,386.088,542.341,386.805z"
   id="path58" />
		<path
   style="fill:#BBFFF5;"
   d="M528.096,387.895c-1.552-2.469-3.813-4.523-5.79-6.647c-2.105-2.262-4.21-4.524-6.315-6.785    c-0.663-0.712-1.735,0.35-1.075,1.059c2.046,2.198,4.091,4.396,6.137,6.594c1.008,1.083,2.016,2.166,3.024,3.249    c0.968,1.04,1.949,2.069,2.708,3.277C527.302,389.464,528.613,388.718,528.096,387.895z"
   id="path60" />
		<path
   style="fill:#BBFFF5;"
   d="M528.45,355.289c-3.658-4.129-7.508-8.083-11.538-11.85c-0.709-0.662-1.785,0.396-1.075,1.059    c4.03,3.767,7.88,7.721,11.538,11.85C528.021,357.077,529.092,356.014,528.45,355.289z"
   id="path62" />
	</g>
	<path
   style="fill:#FF5331;"
   d="M298.622,147.491c0,0.453-0.015,0.905-0.03,1.343c-0.015,0.483-0.045,0.966-0.106,1.448   c-1.961,23.251-27.128,47.195-27.128,47.195c-17.246-16.793-22.753-32.545-25.906-41.507c-0.83-2.49-1.298-5.13-1.343-7.876   c-0.015-0.392-0.015-0.604-0.015-0.604c0-15.043,12.206-27.249,27.264-27.249C286.416,120.242,298.622,132.448,298.622,147.491z    M282.448,148.547c0-6.126-4.964-11.09-11.09-11.09c-6.126,0-11.09,4.964-11.09,11.09s4.964,11.09,11.09,11.09   C277.484,159.637,282.448,154.673,282.448,148.547z"
   id="path66" />
	<g
   id="g76">
		<path
   style="fill:#38B2AC;"
   d="M303.763,418.621H63.894h-0.015c-1.147-6.956,5.462-13.247,12.07-16.25    c10.26-4.677,22.164-5.643,33.043-2.701c-6.141-6.775-11.98-14.183-14.59-22.949c-2.61-8.766-1.343-19.207,5.236-25.559    c5.96-5.749,15.254-7.091,23.251-4.919c8.012,2.173,14.862,7.393,20.64,13.338c-5.477-13.806-5.537-29.678-0.166-43.529    c2.49-6.427,7.272-13.172,14.168-13.428c3.47-0.121,6.79,1.479,9.626,3.5c7.499,5.326,12.508,13.594,15.495,22.3    c2.987,8.691,4.134,17.909,5.251,27.038c3.395-6.624,8.329-12.433,14.288-16.868c6.096-4.511,14.5-7.544,21.153-3.908    c6.548,3.576,8.57,11.995,9.008,19.464c0.558,9.566-0.332,19.222-2.671,28.516c7.831-6.005,17.11-10.335,26.917-11.437    c9.807-1.117,20.127,1.177,27.973,7.167C296.671,387.63,301.077,403.623,303.763,418.621z"
   id="path68" />
		<path
   style="fill:#BBFFF5;"
   d="M161.517,394.284v-19.692c0.102-0.059,0.197-0.139,0.271-0.265    c4.313-7.355,9.022-14.47,14.108-21.314c0.578-0.778-0.733-1.526-1.307-0.754c-4.687,6.308-9.039,12.857-13.072,19.601v-46.312    c0-0.971-1.509-0.966-1.509,0.008v67.002c-5.436-5.605-10.726-11.349-15.828-17.26c-0.636-0.737-1.706,0.328-1.075,1.059    c5.442,6.305,11.081,12.437,16.903,18.393v21.944c0,0.971,1.509,0.966,1.509-0.008v-5.307c3.809-5.474,8.037-10.64,12.643-15.463    c0.67-0.702-0.388-1.778-1.059-1.075c-4.185,4.382-8.04,9.065-11.583,13.979v-14.205    C161.544,394.508,161.548,394.397,161.517,394.284z"
   id="path70" />
		<path
   style="fill:#BBFFF5;"
   d="M219.831,371.799c-4.025,5.125-7.756,10.468-11.201,15.998c0.102-4.26,0.191-8.52,0.321-12.78    c0.12-3.942,0.253-7.884,0.398-11.825c0.036-0.971-1.474-0.963-1.509,0.008c-0.475,12.97-0.807,25.945-1.021,38.922    c-4.891-2.712-9.58-5.773-14.011-9.188c-0.767-0.591-1.513,0.722-0.754,1.307c4.649,3.584,9.576,6.787,14.73,9.595    c-0.006,0.41-0.019,0.82-0.025,1.23c-0.059,3.943-0.106,7.887-0.141,11.831c-0.009,0.971,1.5,0.965,1.509-0.008    c0.04-4.448,0.101-8.896,0.176-13.343c0.028-0.112,0.033-0.226,0.007-0.338c0.073-4.228,0.157-8.456,0.252-12.684    c0.116-0.057,0.225-0.138,0.309-0.276c3.658-6.024,7.666-11.831,12.02-17.374C221.483,372.119,220.43,371.037,219.831,371.799z"
   id="path72" />
		<path
   style="fill:#BBFFF5;"
   d="M131.036,394.061c-3.256,3.88-6.313,7.923-9.206,12.081c0.271-5.296,0.502-10.594,0.662-15.895    c0.029-0.971-1.48-0.963-1.509,0.008c-0.28,9.298-0.732,18.589-1.354,27.87c-0.065,0.969,1.444,0.958,1.509-0.008    c0.217-3.237,0.386-6.477,0.562-9.717c0.219-0.011,0.436-0.102,0.591-0.329c3.054-4.471,6.324-8.788,9.805-12.936    C132.716,394.397,131.66,393.318,131.036,394.061z"
   id="path74" />
	</g>
	<g
   id="g184">
		<polygon
   style="fill:#272742;"
   points="491.507,234.228 503.472,256.664 503.321,256.74 417.802,256.74 397.554,234.53     397.796,234.304 491.356,234.304   "
   id="polygon78" />
		<polygon
   style="fill:#272742;"
   points="417.802,256.74 441.807,283.053 443.014,284.381 437.432,289.466 427.61,278.693     366.383,211.551 305.155,278.693 295.333,289.466 289.751,284.381 291.275,282.706 314.902,256.8 334.924,234.847     342.906,226.096 366.383,200.356 389.859,226.096 397.554,234.53   "
   id="polygon80" />
		<polygon
   style="fill:#272742;"
   points="334.924,234.847 314.902,256.8 314.827,256.74 228.825,256.74 240.79,234.304     334.336,234.304   "
   id="polygon82" />
		<rect
   x="262.819"
   y="209.001"
   style="fill:#272742;"
   width="17.08"
   height="17.095"
   id="rect84" />
		<polygon
   style="fill:#636272;"
   points="517.79,403.757 517.79,418.136 427.61,418.136 427.61,403.757 508.964,403.757   "
   id="polygon86" />
		<polygon
   style="fill:#38385E;"
   points="503.472,256.664 517.353,282.706 508.964,282.706 442.185,282.706 441.807,283.053     417.802,256.74 503.321,256.74   "
   id="polygon88" />
		<path
   style="fill:#FFBE55;"
   d="M508.964,282.706v121.051H427.61V328.89h0.181v-6.231h-0.181v-43.966l9.822,10.773l5.583-5.085    l-1.207-1.328l0.377-0.347H508.964z M493.061,377.021v-7.212h-6.639v-55.554h-33.254v55.554h-6.639v7.212H493.061z"
   id="path90" />
		<polygon
   style="fill:#38385E;"
   points="493.061,369.809 493.061,377.021 446.53,377.021 446.53,369.809 453.169,369.809     456.503,369.809 467.94,369.809 472.557,369.809 483.39,369.809 486.423,369.809   "
   id="polygon92" />
		<polygon
   style="fill:#38385E;"
   points="487.177,226.096 491.507,234.228 491.356,234.304 397.796,234.304 397.554,234.53     389.859,226.096   "
   id="polygon94" />
		<polygon
   style="fill:#38385E;"
   points="486.423,314.255 486.423,369.809 483.39,369.809 483.39,344.205 483.39,339.452     483.39,318.6 472.557,318.6 467.94,318.6 456.503,318.6 456.503,339.452 456.503,344.205 456.503,369.809 453.169,369.809     453.169,314.255   "
   id="polygon96" />
		<rect
   x="472.557"
   y="344.205"
   style="fill:#D2FFFF;"
   width="10.833"
   height="25.604"
   id="rect98" />
		<rect
   x="472.557"
   y="339.452"
   style="fill:#38385E;"
   width="10.833"
   height="4.753"
   id="rect100" />
		<rect
   x="472.557"
   y="318.6"
   style="fill:#D2FFFF;"
   width="10.833"
   height="20.852"
   id="rect102" />
		<rect
   x="467.94"
   y="344.205"
   style="fill:#38385E;"
   width="4.617"
   height="25.604"
   id="rect104" />
		<rect
   x="467.94"
   y="339.452"
   style="fill:#38385E;"
   width="4.617"
   height="4.753"
   id="rect106" />
		<rect
   x="467.94"
   y="318.6"
   style="fill:#38385E;"
   width="4.617"
   height="20.852"
   id="rect108" />
		<rect
   x="456.503"
   y="344.205"
   style="fill:#D2FFFF;"
   width="11.437"
   height="25.604"
   id="rect110" />
		<rect
   x="456.503"
   y="339.452"
   style="fill:#38385E;"
   width="11.437"
   height="4.753"
   id="rect112" />
		<rect
   x="456.503"
   y="318.6"
   style="fill:#D2FFFF;"
   width="11.437"
   height="20.852"
   id="rect114" />
		<polygon
   style="fill:#FFBE55;"
   points="427.61,403.757 427.61,418.136 409.61,418.136 409.61,406.639 390.388,406.639     390.388,341.534 346.979,341.534 342.378,341.534 342.378,406.639 323.155,406.639 323.155,418.136 305.155,418.136     305.155,403.757 305.155,328.89 427.61,328.89   "
   id="polygon116" />
		<rect
   x="305.155"
   y="322.659"
   style="fill:#FFE5B8;"
   width="122.454"
   height="6.231"
   id="rect118" />
		<path
   style="fill:#FFBE55;"
   d="M427.61,278.693v43.966H305.155v-43.966l61.227-67.142L427.61,278.693z M398.429,316.005v-7.318    h-9.158v-56.354h-45.777v56.354h-9.158v7.318H398.429z"
   id="path120" />
		<polygon
   style="fill:#636272;"
   points="409.61,406.639 409.61,418.136 323.155,418.136 323.155,406.639 342.378,406.639     346.979,406.639 390.388,406.639   "
   id="polygon122" />
		<polygon
   style="fill:#38385E;"
   points="398.429,308.688 398.429,316.005 334.336,316.005 334.336,308.688 343.494,308.688     347.658,308.688 362.58,308.688 368.947,308.688 384.684,308.688 389.271,308.688   "
   id="polygon124" />
		<rect
   x="346.979"
   y="341.534"
   style="fill:#4C2222;"
   width="43.408"
   height="65.105"
   id="rect126" />
		<polygon
   style="fill:#38385E;"
   points="389.271,252.334 389.271,308.688 384.684,308.688 384.684,282.706 384.684,277.893     384.684,256.74 368.947,256.74 362.58,256.74 347.658,256.74 347.658,277.893 347.658,282.706 347.658,308.688 343.494,308.688     343.494,252.334   "
   id="polygon128" />
		<rect
   x="368.947"
   y="282.706"
   style="fill:#D2FFFF;"
   width="15.737"
   height="25.982"
   id="rect130" />
		<rect
   x="368.947"
   y="277.893"
   style="fill:#38385E;"
   width="15.737"
   height="4.813"
   id="rect132" />
		<rect
   x="368.947"
   y="256.74"
   style="fill:#D2FFFF;"
   width="15.737"
   height="21.153"
   id="rect134" />
		<rect
   x="362.58"
   y="282.706"
   style="fill:#38385E;"
   width="6.367"
   height="25.982"
   id="rect136" />
		<rect
   x="362.58"
   y="277.893"
   style="fill:#38385E;"
   width="6.367"
   height="4.813"
   id="rect138" />
		<rect
   x="362.58"
   y="256.74"
   style="fill:#38385E;"
   width="6.367"
   height="21.153"
   id="rect140" />
		<rect
   x="347.658"
   y="282.706"
   style="fill:#D2FFFF;"
   width="14.922"
   height="25.982"
   id="rect142" />
		<rect
   x="347.658"
   y="277.893"
   style="fill:#38385E;"
   width="14.922"
   height="4.813"
   id="rect144" />
		<rect
   x="347.658"
   y="256.74"
   style="fill:#D2FFFF;"
   width="14.922"
   height="21.153"
   id="rect146" />
		<rect
   x="342.378"
   y="341.534"
   style="fill:#261414;"
   width="4.602"
   height="65.105"
   id="rect148" />
		<polygon
   style="fill:#38385E;"
   points="342.906,226.096 334.924,234.847 334.336,234.304 240.79,234.304 245.166,226.096     262.819,226.096 279.898,226.096   "
   id="polygon150" />
		<polygon
   style="fill:#38385E;"
   points="314.902,256.8 291.275,282.706 223.801,282.706 214.99,282.706 228.825,256.74     314.827,256.74   "
   id="polygon152" />
		<polygon
   style="fill:#636272;"
   points="305.155,403.757 305.155,418.136 214.99,418.136 214.99,403.757 223.801,403.757   "
   id="polygon154" />
		<path
   style="fill:#FFBE55;"
   d="M305.155,328.89v74.867h-81.354V282.706h67.473l-1.524,1.675l5.583,5.085l9.822-10.773v43.966    V328.89z M286.235,377.021v-7.212h-6.639v-55.554h-33.254v55.554h-6.639v7.212H286.235z"
   id="path156" />
		<polygon
   style="fill:#38385E;"
   points="286.235,369.809 286.235,377.021 239.704,377.021 239.704,369.809 246.343,369.809     249.375,369.809 260.208,369.809 264.825,369.809 276.262,369.809 279.596,369.809   "
   id="polygon158" />
		<polygon
   style="fill:#38385E;"
   points="279.596,314.255 279.596,369.809 276.262,369.809 276.262,344.205 276.262,339.452     276.262,318.6 264.825,318.6 260.208,318.6 249.375,318.6 249.375,339.452 249.375,344.205 249.375,369.809 246.343,369.809     246.343,314.255   "
   id="polygon160" />
		<rect
   x="264.825"
   y="344.205"
   style="fill:#D2FFFF;"
   width="11.437"
   height="25.604"
   id="rect162" />
		<rect
   x="264.825"
   y="339.452"
   style="fill:#38385E;"
   width="11.437"
   height="4.753"
   id="rect164" />
		<rect
   x="264.825"
   y="318.6"
   style="fill:#D2FFFF;"
   width="11.437"
   height="20.852"
   id="rect166" />
		<rect
   x="260.208"
   y="344.205"
   style="fill:#38385E;"
   width="4.617"
   height="25.604"
   id="rect168" />
		<rect
   x="260.208"
   y="339.452"
   style="fill:#38385E;"
   width="4.617"
   height="4.753"
   id="rect170" />
		<rect
   x="260.208"
   y="318.6"
   style="fill:#38385E;"
   width="4.617"
   height="20.852"
   id="rect172" />
		<rect
   x="249.375"
   y="344.205"
   style="fill:#D2FFFF;"
   width="10.833"
   height="25.604"
   id="rect174" />
		<rect
   x="249.375"
   y="339.452"
   style="fill:#38385E;"
   width="10.833"
   height="4.753"
   id="rect176" />
		<rect
   x="249.375"
   y="318.6"
   style="fill:#D2FFFF;"
   width="10.833"
   height="20.852"
   id="rect178" />
		<polygon
   style="fill:#F7A62F;"
   points="305.155,278.693 289.751,403.757 305.155,403.757   "
   id="polygon180" />
		<polygon
   style="fill:#F7A62F;"
   points="427.61,403.757 453.169,282.706 442.185,282.706 441.807,283.053 443.014,284.381     437.432,289.466 427.61,278.693   "
   id="polygon182" />
	</g>
	<path
   style="fill:#E8E8E8;"
   d="M63.879,418.621l630.607-0.744c0,0-71.95,22.389-328.722,22.389S63.879,418.621,63.879,418.621z"
   id="path186" />
	<g
   id="g242">
		<rect
   x="142.027"
   y="280.824"
   style="fill:#FFFEFD;"
   width="155.426"
   height="60.401"
   id="rect188" />
		<polygon
   style="fill:#FFBE55;"
   points="221.066,321.265 223.347,325.887 228.447,326.628 224.756,330.225 225.627,335.305     221.066,332.907 216.504,335.305 217.375,330.225 213.685,326.628 218.785,325.887   "
   id="polygon190" />
		<polygon
   style="fill:#FFBE55;"
   points="239.704,321.265 241.985,325.887 247.085,326.628 243.394,330.225 244.265,335.305     239.704,332.907 235.142,335.305 236.013,330.225 232.323,326.628 237.423,325.887   "
   id="polygon192" />
		<polygon
   style="fill:#FFBE55;"
   points="258.097,321.265 260.378,325.887 265.478,326.628 261.787,330.225 262.658,335.305     258.097,332.907 253.535,335.305 254.406,330.225 250.716,326.628 255.816,325.887   "
   id="polygon194" />
		<polygon
   style="fill:#FFBE55;"
   points="276.735,321.265 279.016,325.887 284.116,326.628 280.425,330.225 281.296,335.305     276.735,332.907 272.173,335.305 273.044,330.225 269.354,326.628 274.454,325.887   "
   id="polygon196" />
		<polygon
   style="fill:#FFBE55;"
   points="203.101,321.265 205.382,325.887 210.482,326.628 206.792,330.225 207.663,335.305     203.101,332.907 198.539,335.305 199.411,330.225 195.72,326.628 200.82,325.887   "
   id="polygon198" />
		<rect
   x="146.472"
   y="287.337"
   style="fill:#CBF4F4;"
   width="39.236"
   height="39.236"
   id="rect200" />
		<rect
   x="189.245"
   y="287.337"
   style="fill:#38385E;"
   width="102.292"
   height="2.128"
   id="rect202" />
		<rect
   x="189.245"
   y="296.183"
   style="fill:#38385E;"
   width="102.292"
   height="2.128"
   id="rect204" />
		<rect
   x="189.245"
   y="305.537"
   style="fill:#38385E;"
   width="102.292"
   height="2.128"
   id="rect206" />
		<rect
   x="189.245"
   y="314.383"
   style="fill:#38385E;"
   width="89.092"
   height="2.128"
   id="rect208" />
		<g
   id="g212">
			<polygon
   style="fill:#A8E5E3;"
   points="185.708,287.337 146.472,326.573 146.472,287.337    "
   id="polygon210" />
		</g>
		<g
   id="g240">
			<rect
   x="142.027"
   y="347.028"
   style="fill:#FFFEFD;"
   width="155.426"
   height="60.401"
   id="rect214" />
			<polygon
   style="fill:#FFBE55;"
   points="221.066,387.47 223.347,392.091 228.447,392.832 224.756,396.429 225.627,401.509      221.066,399.111 216.504,401.509 217.375,396.429 213.685,392.832 218.785,392.091    "
   id="polygon216" />
			<polygon
   style="fill:#FFBE55;"
   points="239.704,387.47 241.985,392.091 247.085,392.832 243.394,396.429 244.265,401.509      239.704,399.111 235.142,401.509 236.013,396.429 232.323,392.832 237.423,392.091    "
   id="polygon218" />
			<polygon
   style="fill:#FFBE55;"
   points="258.097,387.47 260.378,392.091 265.478,392.832 261.787,396.429 262.658,401.509      258.097,399.111 253.535,401.509 254.406,396.429 250.716,392.832 255.816,392.091    "
   id="polygon220" />
			<polygon
   style="fill:#FFBE55;"
   points="276.735,387.47 279.016,392.091 284.116,392.832 280.425,396.429 281.296,401.509      276.735,399.111 272.173,401.509 273.044,396.429 269.354,392.832 274.454,392.091    "
   id="polygon222" />
			<polygon
   style="fill:#FFBE55;"
   points="203.101,387.47 205.382,392.091 210.482,392.832 206.792,396.429 207.663,401.509      203.101,399.111 198.539,401.509 199.411,396.429 195.72,392.832 200.82,392.091    "
   id="polygon224" />
			<rect
   x="146.472"
   y="353.541"
   style="fill:#CBF4F4;"
   width="39.236"
   height="39.236"
   id="rect226" />
			<rect
   x="189.245"
   y="353.541"
   style="fill:#38385E;"
   width="102.292"
   height="2.128"
   id="rect228" />
			<rect
   x="189.245"
   y="362.387"
   style="fill:#38385E;"
   width="102.292"
   height="2.128"
   id="rect230" />
			<rect
   x="189.245"
   y="371.741"
   style="fill:#38385E;"
   width="102.292"
   height="2.128"
   id="rect232" />
			<rect
   x="189.245"
   y="380.587"
   style="fill:#38385E;"
   width="89.092"
   height="2.128"
   id="rect234" />
			<g
   id="g238">
				<polygon
   style="fill:#A8E5E3;"
   points="185.708,353.541 146.472,392.777 146.472,353.541     "
   id="polygon236" />
			</g>
		</g>
	</g>
	<g
   id="g282">
		<g
   id="g246">
			<path
   style="fill:#FF5331;"
   d="M141.036,252.127l-6.711-6.711l-6.669,6.658l-5.435-5.437l6.668-6.658l-6.668-6.668l5.435-5.436     l6.669,6.668l6.658-6.669l5.436,5.436l-6.658,6.669l6.711,6.712L141.036,252.127z M134.324,243.605l6.711,6.711l3.626-3.626     l-6.711-6.711l6.658-6.669l-3.626-3.626l-6.658,6.669l-6.669-6.669l-3.625,3.626l6.668,6.669l-6.668,6.658l3.625,3.626     L134.324,243.605z"
   id="path244" />
		</g>
		<g
   id="g250">
			<path
   style="fill:#FF5331;"
   d="M166.262,195.988l-18.186-14.868l14.869-18.188l18.186,14.868L166.262,195.988z M149.876,180.939     l16.206,13.248l13.249-16.206l-16.206-13.248L149.876,180.939z M165.634,189.737l-11.308-9.245l9.245-11.309l11.308,9.245     L165.634,189.737z M156.127,180.31l9.328,7.625l7.625-9.326l-9.328-7.625L156.127,180.31z"
   id="path248" />
		</g>
		<path
   style="fill:#CBF4F4;"
   d="M174.874,221.015c6.979,0,12.647,5.668,12.647,12.635s-5.668,12.647-12.647,12.647    c-6.967,0-12.635-5.68-12.635-12.647S167.907,221.015,174.874,221.015z M182.797,233.65c0-4.369-3.554-7.912-7.923-7.912    c-4.357,0-7.912,3.542-7.912,7.912c0,4.369,3.554,7.923,7.912,7.923C179.243,241.573,182.797,238.019,182.797,233.65z"
   id="path252" />
		<path
   style="fill:#FFC764;"
   d="M203.098,183.651c4.1,0,7.43,3.33,7.43,7.424s-3.33,7.43-7.43,7.43    c-4.093,0-7.424-3.337-7.424-7.43S199.004,183.651,203.098,183.651z M207.753,191.074c0-2.567-2.088-4.648-4.655-4.648    c-2.56,0-4.648,2.081-4.648,4.648c0,2.567,2.088,4.655,4.648,4.655C205.665,195.73,207.753,193.641,207.753,191.074z"
   id="path254" />
		
			<rect
   x="190.589"
   y="134.581"
   transform="matrix(0.8229 0.5682 -0.5682 0.8229 114.0712 -86.4771)"
   style="fill:#CBF4F4;"
   width="10.347"
   height="10.347"
   id="rect256" />
		<circle
   style="fill:#CBF4F4;"
   cx="378.783"
   cy="140.595"
   r="6.31"
   id="circle258" />
		<g
   id="g262">
			<path
   style="fill:#FFBE55;"
   d="M633.909,207.362l6.711-6.712l-6.658-6.669l5.436-5.436l6.658,6.669l6.669-6.668l5.435,5.436     l-6.668,6.668l6.668,6.658l-5.435,5.437l-6.669-6.658l-6.711,6.711L633.909,207.362z M652.726,210.935l3.625-3.626l-6.668-6.658     l6.668-6.669l-3.625-3.626l-6.669,6.669l-6.658-6.669l-3.626,3.626l6.658,6.669l-6.711,6.711l3.626,3.626l6.711-6.711     L652.726,210.935z"
   id="path260" />
		</g>
		<g
   id="g266">
			<path
   style="fill:#FFFEFD;"
   d="M557.207,228.653l18.186-14.868l14.869,18.188l-18.186,14.868L557.207,228.653z M575.214,215.586     l-16.206,13.248l13.249,16.206l16.206-13.248L575.214,215.586z M563.459,229.281l11.308-9.245l9.245,11.309l-11.308,9.245     L563.459,229.281z M574.586,221.837l-9.328,7.625l7.625,9.326l9.328-7.625L574.586,221.837z"
   id="path264" />
		</g>
		<path
   style="fill:#CBF4F4;"
   d="M641.827,239.978c0,6.967-5.668,12.647-12.635,12.647c-6.979,0-12.647-5.68-12.647-12.647    c0-6.967,5.668-12.635,12.647-12.635C636.159,227.343,641.827,233.011,641.827,239.978z M629.192,247.902    c4.357,0,7.912-3.554,7.912-7.923c0-4.369-3.554-7.912-7.912-7.912c-4.369,0-7.923,3.542-7.923,7.912    C621.269,244.347,624.823,247.902,629.192,247.902z"
   id="path268" />
		<path
   style="fill:#FF5331;"
   d="M621.032,205.32c0,4.093-3.33,7.43-7.424,7.43c-4.1,0-7.431-3.337-7.431-7.43    s3.33-7.424,7.431-7.424C617.702,197.897,621.032,201.227,621.032,205.32z M613.609,209.976c2.56,0,4.648-2.088,4.648-4.655    c0-2.567-2.088-4.648-4.648-4.648c-2.567,0-4.655,2.081-4.655,4.648C608.953,207.887,611.042,209.976,613.609,209.976z"
   id="path270" />
		
			<rect
   x="608.432"
   y="150.561"
   transform="matrix(-0.8229 0.5682 -0.5682 -0.8229 1207.0322 -64.7402)"
   style="fill:#FFBE55;"
   width="10.347"
   height="10.347"
   id="rect272" />
		<circle
   style="fill:#FF5331;"
   cx="559.64"
   cy="140.236"
   r="3.326"
   id="circle274" />
		<circle
   style="fill:#FF5331;"
   cx="643.528"
   cy="291"
   r="4.697"
   id="circle276" />
		<circle
   style="fill:#FF5331;"
   cx="117.122"
   cy="288.483"
   r="4.313"
   id="circle278" />
		<circle
   style="fill:#FFFEFD;"
   cx="227.039"
   cy="215.669"
   r="4.118"
   id="circle280" />
	</g>
</g>
	
</svg>
